<?xml version="1.0" encoding="UTF-8" standalone="no"?>
<!-- Created with Inkscape (http://www.inkscape.org/) -->

<svg
   width="48"
   height="48"
   viewBox="0 0 12.7 12.7"
   version="1.1"
   id="svg1"
   sodipodi:docname="logo.svg"
   inkscape:version="1.3.2 (091e20ef0f, 2023-11-25)"
   inkscape:export-filename="logo.png"
   inkscape:export-xdpi="96"
   inkscape:export-ydpi="96"
   xmlns:inkscape="http://www.inkscape.org/namespaces/inkscape"
   xmlns:sodipodi="http://sodipodi.sourceforge.net/DTD/sodipodi-0.dtd"
   xmlns="http://www.w3.org/2000/svg"
   xmlns:svg="http://www.w3.org/2000/svg">
  <sodipodi:namedview
     id="namedview1"
     pagecolor="#ffffff"
     bordercolor="#000000"
     borderopacity="0.25"
     inkscape:showpageshadow="2"
     inkscape:pageopacity="0.0"
     inkscape:pagecheckerboard="0"
     inkscape:deskcolor="#d1d1d1"
     inkscape:document-units="mm"
     showborder="true"
     showgrid="false"
     inkscape:zoom="10.270833"
     inkscape:cx="24"
     inkscape:cy="24"
     inkscape:window-width="1366"
     inkscape:window-height="699"
     inkscape:window-x="0"
     inkscape:window-y="0"
     inkscape:window-maximized="1"
     inkscape:current-layer="layer1" />
  <defs
     id="defs1" />
  <g
     inkscape:label="Layer 1"
     inkscape:groupmode="layer"
     id="layer1">
    <path
       id="text3"
       style="font-style:normal;font-variant:normal;font-weight:normal;font-stretch:normal;font-size:14.9563px;font-family:'Abyssinica SIL';-inkscape-font-specification:'Abyssinica SIL';fill:#b40000;fill-opacity:1;stroke-width:1.87218"
       d="m 3.7281202,0.99993896 c -0.5521254,0 -1.0251744,0.0605801 -1.4189031,0.18138424 C 1.9109626,1.296875 1.584759,1.4675855 1.3313244,1.6934367 1.0778896,1.9192879 0.89241553,2.1921146 0.77474945,2.5125082 0.65708339,2.8329017 0.59855257,3.1953491 0.59855257,3.5997803 c 0,0.4044312 0.065683,0.7483513 0.19692593,1.0319783 0.13124295,0.2836272 0.296297,0.5229318 0.4954241,0.7172689 0.1991274,0.194337 0.4160782,0.3490193 0.6514104,0.4645711 0.2353321,0.1155519 0.4550126,0.2051725 0.6586654,0.2682008 -0.3122677,0 -0.6197443,0.044552 -0.9229609,0.1338419 C 1.3702757,6.299679 1.0937574,6.4413489 0.84937403,6.6409383 0.60499066,6.8405278 0.40845984,7.103358 0.25911445,7.4290039 0.10524344,7.7546498 0.02798559,8.1536351 0.02798559,8.6263469 c 0,0.4359452 0.0546264,0.8194191 0.16324124,1.1503174 0.10408921,0.3256457 0.24651183,0.6064867 0.42753656,0.8428427 0.18102473,0.236355 0.39134171,0.433608 0.63119941,0.591178 0.2353321,0.152318 0.484278,0.275461 0.7467639,0.370004 0.2579602,0.08929 0.5229035,0.152369 0.7944407,0.189135 0.2670114,0.03677 0.5225913,0.05529 0.7669747,0.05529 h 0.4436016 3.4462038 0.4161356 c 0.579279,0 1.1020136,-0.06808 1.5681526,-0.204639 0.4661387,-0.136561 0.8779273,-0.328298 1.2354513,-0.575158 0.357523,-0.246861 0.663307,-0.538732 0.916741,-0.874882 0.25796,-0.3414033 0.468278,-0.7143639 0.631201,-1.1187951 0.162922,-0.4044313 0.282712,-0.832457 0.359648,-1.2841594 0.07694,-0.4517024 0.115565,-0.9112678 0.115565,-1.3787272 0,-0.9296664 -0.129155,-1.733152 -0.387116,-2.4107055 C 12.045766,3.3004982 11.688086,2.7413156 11.230998,2.300118 10.778437,1.8589203 10.240222,1.5330108 9.6156873,1.3229166 8.9911521,1.1075702 8.3144202,0.99993896 7.5857956,0.99993896 H 7.4479475 4.0017437 Z M 4.2370183,1.7404622 c 0.07241,0 0.1513608,0.0025 0.2373476,0.00775 0.081461,0.00525 0.1609303,0.010767 0.2378658,0.01602 0.035637,0.00259 0.06456,0.00517 0.096908,0.00775 0.06295,0.020079 0.1133943,0.056861 0.1497674,0.1105875 0.037552,0.050845 0.060966,0.1027068 0.072552,0.1560629 v 3.8302571 c -0.063359,0.00525 -0.1268303,0.00775 -0.190189,0.00775 -0.054308,0.00525 -0.1089338,0.00827 -0.1632412,0.00827 H 4.5287796 c -0.4525617,0 -0.8323554,-0.047568 -1.1400975,-0.1421102 C 3.0764144,5.6430072 2.8252573,5.5013373 2.6351813,5.3175049 2.4451054,5.1336725 2.3093167,4.9078969 2.2278556,4.6400269 2.1418689,4.3669045 2.0988173,4.0570231 2.0988173,3.7103679 c 0,-0.6355348 0.1761106,-1.1216416 0.5291088,-1.4577923 C 2.9809244,1.9111727 3.517445,1.7404622 4.2370183,1.7404622 Z m 2.4035328,0.031523 h 0.863883 c 0.5475999,0 1.0432802,0.084106 1.4867908,0.2521809 0.4480365,0.162823 0.8278296,0.4306515 1.1400971,0.8035685 0.316793,0.3676648 0.559105,0.8482567 0.726554,1.4417726 0.171973,0.5882635 0.258076,1.3051442 0.258076,2.150773 0,0.8298718 -0.08611,1.5362393 -0.258076,2.1192506 C 10.690427,9.1225417 10.452539,9.5981353 10.144796,9.9658 9.8370545,10.333465 9.4638945,10.603792 9.0249096,10.77712 8.5904503,10.945196 8.1063447,11.0318 7.5723218,11.037052 l -0.9379894,0.01344 c -0.058831,-0.02052 -0.1049309,-0.0562 -0.1368116,-0.108003 -0.022966,-0.03392 -0.039969,-0.06831 -0.052341,-0.103353 V 1.9859253 c 0.012371,-0.035041 0.029375,-0.06943 0.052341,-0.1033529 0.033054,-0.053706 0.081008,-0.090503 0.1430303,-0.1105872 z M 3.7820158,6.6331868 c 0.1131404,0 0.2400838,0.005 0.380378,0.015503 0.1357686,0.010505 0.2649232,0.021018 0.3871149,0.031523 0.1221916,0.010505 0.2281967,0.021018 0.318709,0.031523 0.090512,0.010505 0.1451388,0.01602 0.1632413,0.01602 v 4.0586672 c -0.011586,0.05336 -0.035,0.105218 -0.072552,0.156063 -0.014688,0.0217 -0.032282,0.04012 -0.051304,0.05633 -0.069965,0.0054 -0.1406634,0.01169 -0.2088452,0.01499 -0.090512,0.01051 -0.1832495,0.018 -0.2782874,0.02325 H 4.1691308 c -0.4887668,0 -0.8983443,-0.04705 -1.2287143,-0.141593 C 2.6055207,10.800917 2.3339435,10.659247 2.125765,10.470162 1.9175865,10.281077 1.76853,10.044788 1.6780175,9.7611613 1.5875052,9.4775342 1.5422424,9.1436106 1.5422424,8.7601888 c 0,-0.7353294 0.1876855,-1.2734856 0.5633118,-1.6148885 0.3756263,-0.341403 0.9342602,-0.5121135 1.6764616,-0.5121135 z" />
  </g>
</svg>
